# Blender 4.0.2
# www.blender.org
mtllib untitled.mtl
o Circle
v 0.000000 0.000000 -1.000000
v -0.195090 0.000000 -0.980785
v -0.382683 0.000000 -0.923880
v -0.555570 0.000000 -0.831470
v -0.707107 0.000000 -0.707107
v -0.831470 0.000000 -0.555570
v -0.923880 0.000000 -0.382683
v -0.980785 0.000000 -0.195090
v -1.000000 0.000000 0.000000
v -0.980785 0.000000 0.195090
v -0.923880 0.000000 0.382683
v -0.831470 0.000000 0.555570
v -0.707107 0.000000 0.707107
v -0.555570 0.000000 0.831470
v -0.382683 0.000000 0.923880
v -0.195090 0.000000 0.980785
v 0.000000 0.000000 1.000000
v 0.195090 0.000000 0.980785
v 0.382683 0.000000 0.923880
v 0.555570 0.000000 0.831470
v 0.707107 0.000000 0.707107
v 0.831470 0.000000 0.555570
v 0.923880 0.000000 0.382683
v 0.980785 0.000000 0.195090
v 1.000000 0.000000 0.000000
v 0.980785 0.000000 -0.195090
v 0.923880 0.000000 -0.382683
v 0.831470 0.000000 -0.555570
v 0.707107 0.000000 -0.707107
v 0.555570 0.000000 -0.831470
v 0.382683 0.000000 -0.923880
v 0.195090 0.000000 -0.980785
v 0.466514 0.600000 -1.255375
v 0.212639 0.600000 -1.322266
v -0.049408 0.600000 -1.338343
v -0.309557 0.600000 -1.302988
v -0.557809 0.600000 -1.217560
v -0.784625 0.600000 -1.085342
v -0.981288 0.600000 -0.911415
v -1.140241 0.600000 -0.702462
v -1.255375 0.600000 -0.466514
v -1.322266 0.600000 -0.212639
v -1.338343 0.600000 0.049408
v -1.302988 0.600000 0.309557
v -1.217560 0.600000 0.557809
v -1.085342 0.600000 0.784625
v -0.911415 0.600000 0.981288
v -0.702462 0.600000 1.140241
v -0.466514 0.600000 1.255375
v -0.212639 0.600000 1.322266
v 0.049408 0.600000 1.338343
v 0.309557 0.600000 1.302988
v 0.557809 0.600000 1.217560
v 0.784625 0.600000 1.085342
v 0.981288 0.600000 0.911415
v 1.140241 0.600000 0.702462
v 1.255375 0.600000 0.466514
v 1.322266 0.600000 0.212639
v 1.338343 0.600000 -0.049408
v 1.302988 0.600000 -0.309557
v 1.217560 0.600000 -0.557809
v 1.085342 0.600000 -0.784625
v 0.911415 0.600000 -0.981288
v 0.702462 0.600000 -1.140241
v 0.150412 1.300000 -2.279750
v -0.297235 1.300000 -2.265289
v -0.733460 1.300000 -2.163774
v -1.141498 1.300000 -1.979107
v -1.505669 1.300000 -1.718384
v -1.811978 1.300000 -1.391624
v -2.048654 1.300000 -1.011385
v -2.206601 1.300000 -0.592279
v -2.279750 1.300000 -0.150412
v -2.265289 1.300000 0.297235
v -2.163774 1.300000 0.733460
v -1.979107 1.300000 1.141498
v -1.718384 1.300000 1.505669
v -1.391624 1.300000 1.811978
v -1.011385 1.300000 2.048654
v -0.592279 1.300000 2.206601
v -0.150412 1.300000 2.279750
v 0.297235 1.300000 2.265289
v 0.733460 1.300000 2.163774
v 1.141498 1.300000 1.979107
v 1.505669 1.300000 1.718384
v 1.811978 1.300000 1.391624
v 2.048654 1.300000 1.011385
v 2.206601 1.300000 0.592279
v 2.279750 1.300000 0.150412
v 2.265289 1.300000 -0.297235
v 2.163774 1.300000 -0.733460
v 1.979107 1.300000 -1.141498
v 1.718384 1.300000 -1.505669
v 1.391624 1.300000 -1.811978
v 1.011385 1.300000 -2.048654
v 0.592279 1.300000 -2.206601
v 1.450259 2.300000 -3.486254
v 0.742258 2.300000 -3.702198
v 0.005733 2.300000 -3.775868
v -0.731012 2.300000 -3.704435
v -1.439665 2.300000 -3.490642
v -2.092993 2.300000 -3.142705
v -2.665888 2.300000 -2.673996
v -3.136335 2.300000 -2.102527
v -3.486253 2.300000 -1.450259
v -3.702198 2.300000 -0.742258
v -3.775868 2.300000 -0.005733
v -3.704434 2.300000 0.731012
v -3.490641 2.300000 1.439665
v -3.142704 2.300000 2.092993
v -2.673996 2.300000 2.665888
v -2.102527 2.300000 3.136334
v -1.450259 2.300000 3.486253
v -0.742258 2.300000 3.702197
v -0.005733 2.300000 3.775868
v 0.731013 2.300000 3.704434
v 1.439666 2.300000 3.490641
v 2.092993 2.300000 3.142704
v 2.665888 2.300000 2.673996
v 3.136334 2.300000 2.102527
v 3.486253 2.300000 1.450259
v 3.702197 2.300000 0.742258
v 3.775868 2.300000 0.005733
v 3.704435 2.300000 -0.731013
v 3.490642 2.300000 -1.439666
v 3.142705 2.300000 -2.092993
v 2.673996 2.300000 -2.665888
v 2.102527 2.300000 -3.136334
v 0.298639 3.292686 -6.032594
v -0.880513 3.393895 -5.978109
v -2.025827 3.499181 -5.693889
v -3.093290 3.604499 -5.190856
v -4.041879 3.705801 -4.488342
v -4.835141 3.799195 -3.613343
v -5.442591 3.881091 -2.599485
v -5.840886 3.948341 -1.485730
v -6.014719 3.998362 -0.314881
v -5.957409 4.029232 0.868071
v -5.671158 4.039762 2.017662
v -5.166970 4.029552 3.089716
v -4.464218 3.998989 4.043034
v -3.589907 3.949252 4.840980
v -2.577639 3.882250 5.452890
v -1.466314 3.800558 5.855249
v -0.298639 3.707316 6.032594
v 0.880513 3.606107 5.978109
v 2.025827 3.500820 5.693889
v 3.093290 3.395502 5.190856
v 4.041879 3.294200 4.488343
v 4.835141 3.200806 3.613343
v 5.442590 3.118911 2.599486
v 5.840886 3.051660 1.485731
v 6.014719 3.001639 0.314880
v 5.957408 2.970770 -0.868070
v 5.671159 2.960239 -2.017662
v 5.166970 2.970450 -3.089716
v 4.464219 3.001012 -4.043034
v 3.589907 3.050750 -4.840980
v 2.577639 3.117752 -5.452889
v 1.466314 3.199444 -5.855248
vn 0.8554 -0.4977 0.1434
vn 0.7215 -0.6732 0.1621
vn 0.6760 -0.6732 0.2997
vn 0.8110 -0.4977 0.3076
vn -0.7909 -0.4977 0.3560
vn -0.6900 -0.6732 0.2661
vn -0.7286 -0.6732 0.1264
vn -0.8452 -0.4977 0.1948
vn 0.8669 -0.4977 -0.0262
vn 0.7393 -0.6732 0.0182
vn -0.7063 -0.4977 0.5034
vn -0.6248 -0.6732 0.3956
vn 0.8452 -0.4977 -0.1948
vn 0.7286 -0.6732 -0.1264
vn -0.5945 -0.4977 0.6315
vn -0.5356 -0.6732 0.5099
vn 0.7909 -0.4977 -0.3560
vn 0.6900 -0.6732 -0.2661
vn -0.4599 -0.4977 0.7354
vn -0.4259 -0.6732 0.6046
vn -0.0262 -0.4977 -0.8669
vn 0.0182 -0.6732 -0.7393
vn 0.1621 -0.6732 -0.7215
vn 0.1434 -0.4977 -0.8554
vn 0.7063 -0.4977 -0.5034
vn 0.6248 -0.6732 -0.3956
vn -0.3076 -0.4977 0.8110
vn -0.2997 -0.6732 0.6760
vn -0.1948 -0.4977 -0.8452
vn -0.1264 -0.6732 -0.7286
vn 0.5945 -0.4977 -0.6315
vn 0.5356 -0.6732 -0.5099
vn -0.1434 -0.4977 0.8554
vn -0.1621 -0.6732 0.7215
vn -0.3560 -0.4977 -0.7909
vn -0.2661 -0.6732 -0.6900
vn 0.4599 -0.4977 -0.7354
vn 0.4259 -0.6732 -0.6046
vn 0.0262 -0.4977 0.8669
vn -0.0182 -0.6732 0.7393
vn -0.5034 -0.4977 -0.7063
vn -0.3956 -0.6732 -0.6248
vn 0.3076 -0.4977 -0.8110
vn 0.2997 -0.6732 -0.6760
vn 0.1948 -0.4977 0.8452
vn 0.1264 -0.6732 0.7286
vn -0.6315 -0.4977 -0.5945
vn -0.5099 -0.6732 -0.5356
vn 0.3560 -0.4977 0.7909
vn 0.2661 -0.6732 0.6900
vn -0.7354 -0.4977 -0.4599
vn -0.6046 -0.6732 -0.4259
vn 0.5034 -0.4977 0.7063
vn 0.3956 -0.6732 0.6248
vn -0.8110 -0.4977 -0.3076
vn -0.6760 -0.6732 -0.2997
vn 0.6315 -0.4977 0.5945
vn 0.5099 -0.6732 0.5356
vn -0.8554 -0.4977 -0.1434
vn -0.7215 -0.6732 -0.1621
vn 0.7354 -0.4977 0.4599
vn 0.6046 -0.6732 0.4259
vn -0.8669 -0.4977 0.0262
vn -0.7393 -0.6732 -0.0182
vn 0.1096 -0.8211 -0.5601
vn 0.2168 -0.8211 -0.5279
vn 0.2200 -0.8211 0.5266
vn 0.1130 -0.8211 0.5594
vn -0.4755 -0.8211 -0.3156
vn -0.4048 -0.8211 -0.4023
vn 0.3185 -0.8211 0.4736
vn -0.5279 -0.8211 -0.2168
vn 0.4048 -0.8211 0.4023
vn -0.5601 -0.8211 -0.1096
vn 0.4755 -0.8211 0.3156
vn -0.5707 -0.8211 0.0017
vn 0.5279 -0.8211 0.2168
vn -0.5594 -0.8211 0.1130
vn 0.5601 -0.8211 0.1096
vn -0.5266 -0.8211 0.2200
vn 0.5707 -0.8211 -0.0017
vn -0.4736 -0.8211 0.3185
vn 0.5594 -0.8211 -0.1130
vn -0.4023 -0.8211 0.4048
vn 0.5266 -0.8211 -0.2200
vn -0.3156 -0.8211 0.4755
vn -0.0017 -0.8211 -0.5707
vn 0.4736 -0.8211 -0.3185
vn -0.2168 -0.8211 0.5279
vn -0.1130 -0.8211 -0.5594
vn 0.4023 -0.8211 -0.4048
vn -0.1096 -0.8211 0.5601
vn -0.2200 -0.8211 -0.5266
vn 0.3156 -0.8211 -0.4755
vn 0.0017 -0.8211 0.5707
vn -0.3185 -0.8211 -0.4736
vn 0.3489 -0.8890 0.2965
vn 0.2933 -0.8805 0.3725
vn -0.5756 -0.8172 -0.0283
vn -0.5536 -0.8219 -0.1341
vn 0.3882 -0.8966 0.2133
vn -0.5748 -0.8143 0.0805
vn 0.4113 -0.9027 0.1263
vn -0.5510 -0.8133 0.1871
vn 0.4187 -0.9073 0.0382
vn -0.5054 -0.8140 0.2863
vn 0.4112 -0.9102 -0.0487
vn -0.4400 -0.8166 0.3735
vn 0.3897 -0.9114 -0.1324
vn -0.3583 -0.8210 0.4445
vn 0.0056 -0.8823 -0.4707
vn 0.0953 -0.8907 -0.4445
vn 0.3550 -0.9106 -0.2115
vn -0.2644 -0.8269 0.4963
vn -0.0896 -0.8730 -0.4794
vn 0.3075 -0.9081 -0.2842
vn -0.1629 -0.8342 0.5268
vn -0.1870 -0.8634 -0.4687
vn 0.2478 -0.9038 -0.3488
vn -0.0588 -0.8426 0.5353
vn -0.2822 -0.8536 -0.4378
vn 0.1767 -0.8980 -0.4030
vn 0.0430 -0.8518 0.5220
vn -0.3708 -0.8443 -0.3869
vn 0.1380 -0.8615 0.4887
vn -0.4482 -0.8357 -0.3174
vn 0.2224 -0.8711 0.4378
vn -0.5103 -0.8281 -0.2320
vn 0.2886 -0.9574 -0.0034
vn 0.2984 -0.9522 0.0656
vn -0.4996 -0.7968 0.3399
vn -0.5562 -0.7939 0.2457
vn 0.2710 -0.9602 -0.0679
vn -0.4238 -0.8032 0.4187
vn 0.2467 -0.9605 -0.1285
vn -0.3330 -0.8129 0.4779
vn -0.0693 -0.9121 -0.4041
vn 0.0079 -0.9259 -0.3776
vn 0.2160 -0.9585 -0.1861
vn -0.2329 -0.8254 0.5143
vn -0.1547 -0.8965 -0.4151
vn 0.1782 -0.9540 -0.2411
vn -0.1292 -0.8401 0.5268
vn -0.2445 -0.8799 -0.4073
vn 0.1316 -0.9471 -0.2928
vn -0.0281 -0.8564 0.5155
vn -0.3342 -0.8630 -0.3789
vn 0.0751 -0.9377 -0.3393
vn 0.0648 -0.8735 0.4825
vn -0.4184 -0.8464 -0.3294
vn 0.1448 -0.8905 0.4313
vn -0.4916 -0.8311 -0.2600
vn 0.2088 -0.9067 0.3664
vn -0.5489 -0.8177 -0.1736
vn 0.2553 -0.9214 0.2930
vn -0.5861 -0.8068 -0.0742
vn 0.2844 -0.9341 0.2159
vn -0.6004 -0.7990 0.0327
vn 0.2979 -0.9444 0.1392
vn -0.5904 -0.7946 0.1414
vt 0.464943 0.541881
vt 0.420189 0.537821
vt 0.416063 0.521822
vt 0.458656 0.531592
vt 0.507010 0.464973
vt 0.542674 0.443270
vt 0.554508 0.453826
vt 0.515316 0.468234
vt 0.471052 0.548965
vt 0.427271 0.553032
vt 0.498201 0.463411
vt 0.529042 0.435201
vt 0.477800 0.553912
vt 0.436943 0.566477
vt 0.488616 0.463432
vt 0.514120 0.429916
vt 0.485162 0.556928
vt 0.448838 0.577568
vt 0.479474 0.465100
vt 0.498425 0.427569
vt 0.529390 0.537633
vt 0.538236 0.579898
vt 0.524078 0.587375
vt 0.522959 0.544396
vt 0.492906 0.558037
vt 0.462513 0.585885
vt 0.472794 0.468134
vt 0.482617 0.428263
vt 0.534493 0.529978
vt 0.550808 0.569803
vt 0.500726 0.557248
vt 0.477448 0.591133
vt 0.467463 0.472925
vt 0.467484 0.432040
vt 0.537964 0.521518
vt 0.561265 0.557489
vt 0.508741 0.554580
vt 0.493073 0.593135
vt 0.461578 0.479745
vt 0.453534 0.438824
vt 0.539685 0.512616
vt 0.569182 0.543416
vt 0.516256 0.550252
vt 0.508825 0.591855
vt 0.456747 0.487354
vt 0.441051 0.448371
vt 0.539615 0.503608
vt 0.574248 0.528122
vt 0.453549 0.495743
vt 0.430549 0.460277
vt 0.537778 0.494832
vt 0.576278 0.512188
vt 0.452117 0.504592
vt 0.422497 0.474111
vt 0.534260 0.486615
vt 0.575207 0.496211
vt 0.452523 0.513555
vt 0.417260 0.489359
vt 0.529204 0.479266
vt 0.571092 0.480788
vt 0.454720 0.522863
vt 0.415084 0.505450
vt 0.522808 0.473061
vt 0.564102 0.466485
vt 0.595968 0.635029
vt 0.569821 0.652706
vt 0.344386 0.457551
vt 0.357571 0.428910
vt 0.647082 0.465717
vt 0.652985 0.495969
vt 0.337039 0.488406
vt 0.635572 0.437248
vt 0.335892 0.520271
vt 0.618913 0.411556
vt 0.341048 0.551878
vt 0.597727 0.389534
vt 0.352340 0.581949
vt 0.572772 0.371945
vt 0.369338 0.609255
vt 0.544930 0.359412
vt 0.391345 0.632643
vt 0.515180 0.352399
vt 0.417480 0.651140
vt 0.484580 0.351196
vt 0.446693 0.663987
vt 0.454249 0.355907
vt 0.618060 0.612602
vt 0.477799 0.670674
vt 0.425322 0.366439
vt 0.635288 0.586385
vt 0.509537 0.670956
vt 0.398897 0.382502
vt 0.647057 0.557447
vt 0.540627 0.664866
vt 0.376004 0.403580
vt 0.653003 0.526924
vt 0.200030 0.485519
vt 0.211394 0.427887
vt 0.742135 0.361799
vt 0.766607 0.411557
vt 0.200359 0.544645
vt 0.709002 0.317699
vt 0.212543 0.602825
vt 0.668405 0.280629
vt 0.236211 0.657605
vt 0.621712 0.251744
vt 0.270467 0.706647
vt 0.570435 0.231982
vt 0.313936 0.747848
vt 0.516220 0.222054
vt 0.650017 0.764196
vt 0.597049 0.790495
vt 0.364823 0.779442
vt 0.460834 0.222428
vt 0.696289 0.727863
vt 0.420998 0.800090
vt 0.406152 0.233297
vt 0.734062 0.683318
vt 0.480093 0.808937
vt 0.354124 0.254536
vt 0.762035 0.632624
vt 0.539611 0.805663
vt 0.306776 0.285811
vt 0.779406 0.577961
vt 0.266072 0.326116
vt 0.785841 0.521513
vt 0.233781 0.374061
vt 0.781425 0.465390
vt 0.179213 0.886093
vt 0.109461 0.815069
vt 0.559275 0.002902
vt 0.653446 0.024260
vt 0.261560 0.941936
vt 0.462302 0.000000
vt 0.353255 0.980402
vt 0.366045 0.015939
vt 0.889885 0.815194
vt 0.821316 0.886593
vt 0.450682 1.000000
vt 0.274098 0.050463
vt 0.942874 0.732453
vt 0.550013 1.000000
vt 0.190032 0.102651
vt 0.978689 0.641662
vt 0.647369 0.980449
vt 0.118537 0.171598
vt 0.996357 0.546245
vt 0.738979 0.942147
vt 0.061928 0.253257
vt 0.995522 0.449672
vt 0.022389 0.344477
vt 0.976423 0.355363
vt 0.001466 0.441736
vt 0.939870 0.266610
vt -0.000000 0.541266
vt 0.887214 0.186501
vt 0.018084 0.639189
vt 0.820312 0.117842
vt 0.055044 0.731670
vt 0.741481 0.063086
s 1
f 25/1/1 57/2/2 56/3/3 24/4/4
f 12/5/5 44/6/6 43/7/7 11/8/8
f 26/9/9 58/10/10 57/2/2 25/1/1
f 13/11/11 45/12/12 44/6/6 12/5/5
f 27/13/13 59/14/14 58/10/10 26/9/9
f 14/15/15 46/16/16 45/12/12 13/11/11
f 28/17/17 60/18/18 59/14/14 27/13/13
f 15/19/19 47/20/20 46/16/16 14/15/15
f 2/21/21 34/22/22 33/23/23 1/24/24
f 29/25/25 61/26/26 60/18/18 28/17/17
f 16/27/27 48/28/28 47/20/20 15/19/19
f 3/29/29 35/30/30 34/22/22 2/21/21
f 30/31/31 62/32/32 61/26/26 29/25/25
f 17/33/33 49/34/34 48/28/28 16/27/27
f 4/35/35 36/36/36 35/30/30 3/29/29
f 31/37/37 63/38/38 62/32/32 30/31/31
f 18/39/39 50/40/40 49/34/34 17/33/33
f 5/41/41 37/42/42 36/36/36 4/35/35
f 32/43/43 64/44/44 63/38/38 31/37/37
f 19/45/45 51/46/46 50/40/40 18/39/39
f 6/47/47 38/48/48 37/42/42 5/41/41
f 1/24/24 33/23/23 64/44/44 32/43/43
f 20/49/49 52/50/50 51/46/46 19/45/45
f 7/51/51 39/52/52 38/48/48 6/47/47
f 21/53/53 53/54/54 52/50/50 20/49/49
f 8/55/55 40/56/56 39/52/52 7/51/51
f 22/57/57 54/58/58 53/54/54 21/53/53
f 9/59/59 41/60/60 40/56/56 8/55/55
f 23/61/61 55/62/62 54/58/58 22/57/57
f 10/63/63 42/64/64 41/60/60 9/59/59
f 24/4/4 56/3/3 55/62/62 23/61/61
f 11/8/8 43/7/7 42/64/64 10/63/63
f 33/23/23 65/65/65 96/66/66 64/44/44
f 52/50/50 84/67/67 83/68/68 51/46/46
f 39/52/52 71/69/69 70/70/70 38/48/48
f 53/54/54 85/71/71 84/67/67 52/50/50
f 40/56/56 72/72/72 71/69/69 39/52/52
f 54/58/58 86/73/73 85/71/71 53/54/54
f 41/60/60 73/74/74 72/72/72 40/56/56
f 55/62/62 87/75/75 86/73/73 54/58/58
f 42/64/64 74/76/76 73/74/74 41/60/60
f 56/3/3 88/77/77 87/75/75 55/62/62
f 43/7/7 75/78/78 74/76/76 42/64/64
f 57/2/2 89/79/79 88/77/77 56/3/3
f 44/6/6 76/80/80 75/78/78 43/7/7
f 58/10/10 90/81/81 89/79/79 57/2/2
f 45/12/12 77/82/82 76/80/80 44/6/6
f 59/14/14 91/83/83 90/81/81 58/10/10
f 46/16/16 78/84/84 77/82/82 45/12/12
f 60/18/18 92/85/85 91/83/83 59/14/14
f 47/20/20 79/86/86 78/84/84 46/16/16
f 34/22/22 66/87/87 65/65/65 33/23/23
f 61/26/26 93/88/88 92/85/85 60/18/18
f 48/28/28 80/89/89 79/86/86 47/20/20
f 35/30/30 67/90/90 66/87/87 34/22/22
f 62/32/32 94/91/91 93/88/88 61/26/26
f 49/34/34 81/92/92 80/89/89 48/28/28
f 36/36/36 68/93/93 67/90/90 35/30/30
f 63/38/38 95/94/94 94/91/91 62/32/32
f 50/40/40 82/95/95 81/92/92 49/34/34
f 37/42/42 69/96/96 68/93/93 36/36/36
f 64/44/44 96/66/66 95/94/94 63/38/38
f 51/46/46 83/68/68 82/95/95 50/40/40
f 38/48/48 70/70/70 69/96/96 37/42/42
f 87/75/75 119/97/97 118/98/98 86/73/73
f 74/76/76 106/99/99 105/100/100 73/74/74
f 88/77/77 120/101/101 119/97/97 87/75/75
f 75/78/78 107/102/102 106/99/99 74/76/76
f 89/79/79 121/103/103 120/101/101 88/77/77
f 76/80/80 108/104/104 107/102/102 75/78/78
f 90/81/81 122/105/105 121/103/103 89/79/79
f 77/82/82 109/106/106 108/104/104 76/80/80
f 91/83/83 123/107/107 122/105/105 90/81/81
f 78/84/84 110/108/108 109/106/106 77/82/82
f 92/85/85 124/109/109 123/107/107 91/83/83
f 79/86/86 111/110/110 110/108/108 78/84/84
f 66/87/87 98/111/111 97/112/112 65/65/65
f 93/88/88 125/113/113 124/109/109 92/85/85
f 80/89/89 112/114/114 111/110/110 79/86/86
f 67/90/90 99/115/115 98/111/111 66/87/87
f 94/91/91 126/116/116 125/113/113 93/88/88
f 81/92/92 113/117/117 112/114/114 80/89/89
f 68/93/93 100/118/118 99/115/115 67/90/90
f 95/94/94 127/119/119 126/116/116 94/91/91
f 82/95/95 114/120/120 113/117/117 81/92/92
f 69/96/96 101/121/121 100/118/118 68/93/93
f 96/66/66 128/122/122 127/119/119 95/94/94
f 83/68/68 115/123/123 114/120/120 82/95/95
f 70/70/70 102/124/124 101/121/121 69/96/96
f 65/65/65 97/112/112 128/122/122 96/66/66
f 84/67/67 116/125/125 115/123/123 83/68/68
f 71/69/69 103/126/126 102/124/124 70/70/70
f 85/71/71 117/127/127 116/125/125 84/67/67
f 72/72/72 104/128/128 103/126/126 71/69/69
f 86/73/73 118/98/98 117/127/127 85/71/71
f 73/74/74 105/100/100 104/128/128 72/72/72
f 122/105/105 154/129/129 153/130/130 121/103/103
f 109/106/106 141/131/131 140/132/132 108/104/104
f 123/107/107 155/133/133 154/129/129 122/105/105
f 110/108/108 142/134/134 141/131/131 109/106/106
f 124/109/109 156/135/135 155/133/133 123/107/107
f 111/110/110 143/136/136 142/134/134 110/108/108
f 98/111/111 130/137/137 129/138/138 97/112/112
f 125/113/113 157/139/139 156/135/135 124/109/109
f 112/114/114 144/140/140 143/136/136 111/110/110
f 99/115/115 131/141/141 130/137/137 98/111/111
f 126/116/116 158/142/142 157/139/139 125/113/113
f 113/117/117 145/143/143 144/140/140 112/114/114
f 100/118/118 132/144/144 131/141/141 99/115/115
f 127/119/119 159/145/145 158/142/142 126/116/116
f 114/120/120 146/146/146 145/143/143 113/117/117
f 101/121/121 133/147/147 132/144/144 100/118/118
f 128/122/122 160/148/148 159/145/145 127/119/119
f 115/123/123 147/149/149 146/146/146 114/120/120
f 102/124/124 134/150/150 133/147/147 101/121/121
f 97/112/112 129/138/138 160/148/148 128/122/122
f 116/125/125 148/151/151 147/149/149 115/123/123
f 103/126/126 135/152/152 134/150/150 102/124/124
f 117/127/127 149/153/153 148/151/151 116/125/125
f 104/128/128 136/154/154 135/152/152 103/126/126
f 118/98/98 150/155/155 149/153/153 117/127/127
f 105/100/100 137/156/156 136/154/154 104/128/128
f 119/97/97 151/157/157 150/155/155 118/98/98
f 106/99/99 138/158/158 137/156/156 105/100/100
f 120/101/101 152/159/159 151/157/157 119/97/97
f 107/102/102 139/160/160 138/158/158 106/99/99
f 121/103/103 153/130/130 152/159/159 120/101/101
f 108/104/104 140/132/132 139/160/160 107/102/102
